<svg xmlns:xlink="http://www.w3.org/1999/xlink" width="76" height="76" xmlns="http://www.w3.org/2000/svg">
    <defs>
        <path id="a" d="M0 .051h75.651v75.652H0z"/>
    </defs>
    <g fill="none" fill-rule="evenodd">
        <path d="M73.842 38.132c-.005 19.727-16.002 35.72-35.734 35.712-19.721 0-35.71-16.004-35.706-35.728.004-19.729 16.003-35.72 35.729-35.714 19.732.006 35.714 16.004 35.711 35.73"
              fill="#BDD642"/>
        <g transform="translate(.297 .246)">
            <mask id="b" fill="#fff">
                <use xlink:href="#a"/>
            </mask>
            <path d="M71.44 37.885c0 .155-.005.308-.007.461l-10.27-.003c1.985-.5 2.989-2.1 2.989-4.773v-6.374c.003-1.718-.416-3.007-1.245-3.827-.748-.742-1.84-1.118-3.252-1.118H55.431l-.005 16.091h-2.528l.008-16.09-2.691-.007v.044s-.008 8.41-.01 8.87c-.158-.433-3.29-8.912-3.29-8.912h-2.733l-.004 16.092h-1.46l-2.99-16.092H36.12l-2.998 16.09h-.992l-2.31-7.16c.891-.428 1.934-1.487 1.934-4.098 0-3.34-1.482-4.832-4.807-4.836h-4.006v16.092l-2.665-.002.005-8.16h-4.744l.002 2.358h1.777v1.473c-.004 1.56-.395 2.14-1.445 2.14-.83 0-1.216-.51-1.216-1.604v-8.27c0-1.11.388-1.673 1.15-1.673.98 0 1.511.47 1.511 2.947v.086h2.833v-1.112c0-2.732-1.677-4.498-4.273-4.498-2.542 0-4.185 1.651-4.185 4.206v8.289c0 1.822.763 3.185 2.04 3.817l-9.514-.002c-.002-.154-.007-.307-.007-.46.003-8.98 3.502-17.422 9.855-23.77 6.35-6.348 14.792-9.842 23.769-9.838 18.53.006 33.606 15.084 33.606 33.616v.007Zm-13.048-1.82V24.698h.882c1.434 0 1.918.546 1.918 2.164v7.045c0 .887-.145 1.425-.47 1.747-.292.288-.74.415-1.452.413h-.878ZM46.874 38.34v-9.595c.147.42 2.945 8.348 3.387 9.596h-3.387Zm-9.976-5.977.178-1.106.848-5.297 1.016 6.403h-2.042Zm-.905 5.974.475-3.394h2.903l.477 3.396-3.855-.002Zm-10.088-8.872v-4.777l.905.004c1.499 0 1.98.579 1.98 2.387 0 1.806-.483 2.386-1.984 2.386h-.9Zm1.29 2.386 1.92 6.485h-3.21v-6.428a15.98 15.98 0 0 0 1.29-.057Zm-10.009 6.482c.409-.23.756-.554 1.112-.961l.41.961h-1.522ZM64.58 11.137C57.437 3.992 47.94.054 37.835.051c-10.101-.003-19.6 3.928-26.747 11.07C3.939 18.264.002 27.764 0 37.869c-.002 10.106 3.933 19.609 11.079 26.757 7.141 7.144 16.636 11.077 26.732 11.077 10.103.004 19.605-3.927 26.75-11.07 7.15-7.143 11.087-16.641 11.09-26.747.002-10.103-3.93-19.602-11.071-26.749Z"
                  fill="#ED2D2F" mask="url(#b)"/>
        </g>
        <path fill="#FEFEFE"
              d="M20.288 38.572h-7.945v16.561h3.08V47.92h3.742v-2.719h-3.742v-3.915h5.006v-2.714zM27.431 41.15c1.482 0 1.933.553 1.933 2.366 0 1.809-.451 2.36-1.933 2.36h-.85V41.15h.85Zm-3.79-2.578h-.14v16.561h3.08V48.46c.43-.006.879-.026 1.202-.06l1.98 6.734h3.139L30.51 47.69c.908-.453 1.932-1.545 1.932-4.174 0-3.418-1.505-4.944-4.879-4.944h-3.922ZM40.298 42.267l1.03 6.781h-2.061l1.03-6.78Zm1.731-3.695h-3.587L35.39 55.133h2.947l.546-3.606h2.822l.556 3.606h2.933l-3.049-16.561h-.116ZM51.704 38.572h-2.935v16.561h3.075V38.572zM55.784 42.612c0 2.615 1.743 4.069 3.282 5.352 1.286 1.072 2.397 1.998 2.397 3.396 0 .858-.54 1.35-1.48 1.35-.873 0-1.43-.849-1.527-2.328l-.01-.15-2.944.42.006.127c.112 2.314 1.498 4.65 4.34 4.65 2.812 0 4.557-1.655 4.557-4.318 0-2.53-1.797-4.058-3.38-5.405-1.235-1.05-2.302-1.957-2.302-3.12 0-.943.448-1.462 1.26-1.462.364 0 1.224.163 1.348 1.675l.011.144 2.94-.326-.013-.138c-.27-2.51-1.808-4.07-4.017-4.07-2.84 0-4.468 1.533-4.468 4.203"/>
    </g>
</svg>